<svg width="852" height="953" viewBox="0 0 852 953" fill="none" xmlns="http://www.w3.org/2000/svg">
<g clip-path="url(#clip0_352_2)">
<path d="M452.06 239.98C381.79 239.98 316.67 262.01 263.2 299.53V23.18H108V881.48H263.2V838.86C316.67 876.37 381.79 898.41 452.06 898.41C633.88 898.41 781.27 751.02 781.27 569.2C781.27 387.38 633.87 239.98 452.06 239.98ZM437.28 754.62C338.15 754.62 257.79 671.54 257.79 569.06C257.79 466.58 338.15 383.5 437.28 383.5C536.41 383.5 616.77 466.58 616.77 569.06C616.77 671.54 536.41 754.62 437.28 754.62ZM970.35 -47H1032.43V953H970.35V-47Z" fill="#3ACC15" stroke="#3ACC15" stroke-miterlimit="10"/>
</g>
<defs>
<clipPath id="clip0_352_2">
<rect width="852" height="953" fill="white"/>
</clipPath>
</defs>
</svg>
