<svg id="_07" data-name="07" xmlns="http://www.w3.org/2000/svg" xmlns:xlink="http://www.w3.org/1999/xlink" width="38.423" height="32.008" viewBox="0 0 38.423 32.008">
  <defs>
    <linearGradient id="linear-gradient" x1="0.158" y1="-0.373" x2="1.056" y2="0.941" gradientUnits="objectBoundingBox">
      <stop offset="0" stop-color="#3e6efa"/>
      <stop offset="1" stop-color="#3c6afa"/>
    </linearGradient>
  </defs>
  <path id="패스_29513" data-name="패스 29513" d="M3.265,0H35.158a3.266,3.266,0,0,1,3.266,3.266V28.743a3.265,3.265,0,0,1-3.265,3.265H3.265A3.265,3.265,0,0,1,0,28.743V3.265A3.265,3.265,0,0,1,3.265,0Z" transform="translate(0)" fill="url(#linear-gradient)"/>
  <path id="패스_29477" data-name="패스 29477" d="M266.069,709.215v3.525a2.643,2.643,0,0,0,2.643,2.642H301.85a2.643,2.643,0,0,0,2.643-2.642v-3.525Z" transform="translate(-266.069 -683.374)" fill="#8ddcfd"/>
  <g id="그룹_21156" data-name="그룹 21156" transform="translate(5.136 11.727)">
    <line id="선_1812" data-name="선 1812" x2="5.127" fill="none" stroke="#fff" stroke-linecap="round" stroke-linejoin="round" stroke-width="3"/>
    <line id="선_1813" data-name="선 1813" x2="8.791" transform="translate(0 6.838)" fill="none" stroke="#fff" stroke-linecap="round" stroke-linejoin="round" stroke-width="3"/>
  </g>
  <g id="그룹_21158" data-name="그룹 21158" transform="translate(24.116 12.757)">
    <path id="패스_29478" data-name="패스 29478" d="M315.859,689.522a2.6,2.6,0,1,1-2.605-2.6A2.605,2.605,0,0,1,315.859,689.522Z" transform="translate(-308.607 -686.917)" fill="#fff"/>
    <g id="그룹_21157" data-name="그룹 21157" transform="translate(0 6.507)">
      <path id="패스_29479" data-name="패스 29479" d="M314.21,698.006h-4.788a2.254,2.254,0,0,0-2.253,2.254v4.345h9.3V700.26A2.254,2.254,0,0,0,314.21,698.006Z" transform="translate(-307.169 -698.006)" fill="#fff"/>
    </g>
  </g>
  <path id="패스_29480" data-name="패스 29480" d="M289.053,665.176H268.712a2.643,2.643,0,0,0-2.643,2.643V684.3a20.706,20.706,0,0,0,22.984-19.128Z" transform="translate(-266.069 -665.176)" fill="#fff" opacity="0.2"/>
</svg>
